<?xml version="1.0" encoding="utf-8"?>
<!-- Generator: Adobe Illustrator 16.0.3, SVG Export Plug-In . SVG Version: 6.00 Build 0)  -->
<!DOCTYPE svg PUBLIC "-//W3C//DTD SVG 1.1//EN" "http://www.w3.org/Graphics/SVG/1.1/DTD/svg11.dtd">
<svg version="1.1" id="Capa_1" xmlns="http://www.w3.org/2000/svg" xmlns:xlink="http://www.w3.org/1999/xlink" x="0px" y="0px"
	 width="100px" height="100px" viewBox="0 0 100 100" enable-background="new 0 0 100 100" xml:space="preserve">
<path fill-rule="evenodd" clip-rule="evenodd" fill="#2E2A66" d="M50,7C26.252,7,7,26.252,7,50s19.252,43,43,43s43-19.252,43-43
	S73.748,7,50,7z M69.752,50.632L40.447,71.089c-0.21,0.192-0.221,0.309-0.528,0.309c-0.657,0-0.918-0.532-0.918-1.188
	c0-0.004,0-0.008,0-0.012V28.291c0-0.447-0.02-0.856,0.378-1.059c0.398-0.203,0.606-0.165,0.968,0.098L69.77,48.695
	c0.312,0.226,0.493,0.584,0.49,0.973C70.256,50.052,70.067,50.411,69.752,50.632z"/>
</svg>
