<?xml version="1.0" encoding="utf-8"?>
<!-- Generator: Adobe Illustrator 16.0.3, SVG Export Plug-In . SVG Version: 6.00 Build 0)  -->
<!DOCTYPE svg PUBLIC "-//W3C//DTD SVG 1.1//EN" "http://www.w3.org/Graphics/SVG/1.1/DTD/svg11.dtd">
<svg version="1.1" id="Capa_1" xmlns="http://www.w3.org/2000/svg" xmlns:xlink="http://www.w3.org/1999/xlink" x="0px" y="0px"
	 width="100px" height="100px" viewBox="0 0 100 100" enable-background="new 0 0 100 100" xml:space="preserve">
<g>
	<path fill-rule="evenodd" clip-rule="evenodd" fill="#2E2A66" d="M49.911,98.262c-15.438,0-30.874,0.001-46.31-0.001
		c-2.396,0-2.718-0.349-2.542-2.708c1.192-15.917,13.209-27.068,29.195-27.078c13.282-0.008,26.564-0.009,39.847,0.001
		c14.566,0.01,26.032,9.547,28.677,23.866c0.205,1.113,0.265,2.256,0.348,3.388c0.154,2.147-0.207,2.53-2.367,2.53
		c-14.898,0.003-29.797,0.001-44.694,0.001C51.346,98.262,50.628,98.262,49.911,98.262z"/>
	<path fill-rule="evenodd" clip-rule="evenodd" fill="#2E2A66" d="M50.081,2.763C34.032,2.766,20.992,15.792,20.958,31.85
		C20.927,48.017,33.95,61.08,50.097,61.078c16.065-0.003,29.095-13.004,29.129-29.066C79.258,15.867,66.196,2.759,50.081,2.763z
		 M32.16,35.953c0.057,0.819-0.211,1.164-1.077,1.292c-0.825,0.123-1.344-0.407-1.526-1.247c-0.437-2.012-0.259-4.084,0.052-6.086
		c0.108-0.697,0.622-1.046,1.282-1.017c0.737,0.033,1.242,0.945,1.266,1.736C32.184,31.58,32.162,33,32.162,34
		c-0.042,0-0.085,0-0.127,0C32.074,35,32.101,35.126,32.16,35.953z M52.892,11.299c-0.193,1.282-1.26,1.216-2.262,1.056
		c-4.784-0.763-8.99,0.559-12.672,3.615c-2.61,2.168-4.264,4.967-5.074,8.253c-0.215,0.871-0.479,1.755-1.522,1.658
		c-1.243-0.118-1.388-0.953-1.134-2.104C32.06,15.539,39.568,9.52,48.54,9.485c0.555,0.038,1.517,0.052,2.461,0.185
		C51.951,9.804,53.094,9.967,52.892,11.299z"/>
</g>
</svg>
