<?xml version="1.0" encoding="utf-8"?>
<!-- Generator: Adobe Illustrator 16.0.3, SVG Export Plug-In . SVG Version: 6.00 Build 0)  -->
<!DOCTYPE svg PUBLIC "-//W3C//DTD SVG 1.1//EN" "http://www.w3.org/Graphics/SVG/1.1/DTD/svg11.dtd">
<svg version="1.1" id="Capa_1" xmlns="http://www.w3.org/2000/svg" xmlns:xlink="http://www.w3.org/1999/xlink" x="0px" y="0px"
	 width="100px" height="100px" viewBox="0 0 100 100" enable-background="new 0 0 100 100" xml:space="preserve">
<g>
	<path fill-rule="evenodd" clip-rule="evenodd" fill="#2E2A66" d="M50.822,2.813c0.47,0.157,0.948,0.294,1.411,0.474
		c2.814,1.095,4.706,3.79,4.712,6.934c0.026,12.15,0.03,24.3-0.001,36.45c-0.01,3.802-2.792,6.925-6.43,7.397
		c-3.534,0.46-7.051-1.908-7.963-5.428c-0.206-0.795-0.26-1.649-0.261-2.476c-0.017-11.783-0.013-23.565-0.011-35.348
		c0.001-4.163,1.949-6.73,5.977-7.892c0.06-0.018,0.108-0.074,0.162-0.112C49.22,2.813,50.021,2.813,50.822,2.813z"/>
	<path fill-rule="evenodd" clip-rule="evenodd" fill="#2E2A66" d="M5.567,54.758c0.424-15.063,6.065-26.786,17.489-35.601
		c4.034-3.113,9.386-1.711,11.347,2.879c1.296,3.031,0.266,6.426-2.378,8.715c-2.007,1.74-4.054,3.53-5.665,5.62
		c-13.436,17.431-3.332,42.936,18.408,46.633c16.401,2.789,32.154-8.936,33.917-25.354c1.175-10.957-2.673-19.898-11.27-26.774
		c-3.455-2.762-4.168-7.056-1.644-10.444c2.449-3.286,6.859-3.925,10.217-1.424c7.665,5.707,12.925,13.146,15.701,22.278
		c7.614,25.042-8.312,51.241-34.032,56.064c-23.926,4.485-47.214-11.704-51.331-35.729C5.899,59.13,5.765,56.589,5.567,54.758z"/>
</g>
</svg>
