<?xml version="1.0" encoding="utf-8"?>
<!-- Generator: Adobe Illustrator 16.0.3, SVG Export Plug-In . SVG Version: 6.00 Build 0)  -->
<!DOCTYPE svg PUBLIC "-//W3C//DTD SVG 1.1//EN" "http://www.w3.org/Graphics/SVG/1.1/DTD/svg11.dtd">
<svg version="1.1" id="Capa_1" xmlns="http://www.w3.org/2000/svg" xmlns:xlink="http://www.w3.org/1999/xlink" x="0px" y="0px"
	 width="100px" height="100px" viewBox="0 0 100 100" enable-background="new 0 0 100 100" xml:space="preserve">
<path fill-rule="evenodd" clip-rule="evenodd" fill="#2E2A66" d="M17.471,79.5c-1.462-0.244-2.83-0.361-4.137-0.708
	C6.117,76.873,1.201,70.459,1.192,62.967C1.178,49.501,1.181,36.033,1.19,22.566c0.006-9.324,7.162-16.535,16.494-16.57
	c9.392-0.037,18.784-0.009,28.175-0.009c12.162,0,24.324-0.018,36.485,0.008c5.779,0.013,10.405,2.375,13.757,7.097
	c1.991,2.807,2.895,5.98,2.893,9.422c-0.006,13.403,0.003,26.807-0.004,40.21c-0.006,9.412-7.118,16.586-16.529,16.608
	c-13.912,0.031-27.825,0.017-41.737-0.013c-0.873-0.002-1.473,0.247-2.08,0.859c-4.661,4.704-9.35,9.38-14.038,14.056
	c-1.416,1.414-3.117,1.747-4.798,0.954c-1.616-0.762-2.331-2.091-2.334-3.837c-0.006-3.629-0.002-7.258-0.002-10.888
	C17.471,80.122,17.471,79.782,17.471,79.5z M50.098,38.605c1.177,0,2.354,0,3.531,0c4.295,0,8.59,0.02,12.885-0.011
	c2.155-0.015,3.587-1.32,3.899-3.434c0.306-2.07-0.715-3.909-2.561-4.465c-0.627-0.188-1.314-0.246-1.975-0.247
	c-10.499-0.015-20.998-0.012-31.498-0.006c-0.506,0-1.019,0.033-1.517,0.119c-1.632,0.282-2.736,1.389-3.043,3.004
	c-0.556,2.927,1.16,5.027,4.147,5.035C39.344,38.615,44.721,38.605,50.098,38.605z M45.982,54.889c0.477,0,0.955,0.001,1.432,0
	c3.628-0.001,7.256,0.017,10.884-0.01c1.967-0.015,3.334-1.015,3.826-2.7c0.87-2.979-0.919-5.396-4.047-5.403
	c-8.02-0.016-16.04-0.006-24.06-0.004c-0.286,0-0.573,0.009-0.857,0.037c-1.729,0.167-3.009,1.338-3.337,3.043
	c-0.567,2.947,1.114,5.016,4.129,5.03C37.961,54.902,41.972,54.888,45.982,54.889z"/>
</svg>
