<?xml version="1.0" encoding="utf-8"?>
<!-- Generator: Adobe Illustrator 16.0.3, SVG Export Plug-In . SVG Version: 6.00 Build 0)  -->
<!DOCTYPE svg PUBLIC "-//W3C//DTD SVG 1.1//EN" "http://www.w3.org/Graphics/SVG/1.1/DTD/svg11.dtd">
<svg version="1.1" id="Capa_1" xmlns="http://www.w3.org/2000/svg" xmlns:xlink="http://www.w3.org/1999/xlink" x="0px" y="0px"
	 width="100px" height="100px" viewBox="0 0 100 100" enable-background="new 0 0 100 100" xml:space="preserve">
<path fill-rule="evenodd" clip-rule="evenodd" fill="#2E2A66" d="M30.572,23.484c0-3.364-0.021-6.571,0.006-9.779
	c0.043-4.822,3.219-8.687,7.91-9.636c0.706-0.142,1.446-0.157,2.17-0.158c6.315-0.011,12.633-0.017,18.948-0.004
	c5.958,0.012,10.103,4.155,10.122,10.104c0.011,3.096,0.002,6.192,0.002,9.417c0.471,0.02,0.873,0.053,1.275,0.053
	c6.01,0.004,12.019-0.002,18.029,0.005c5.857,0.006,10.087,4.19,10.092,10.035c0.013,17.8,0.013,35.599,0,53.4
	c-0.004,5.854-4.225,10.06-10.069,10.06c-25.951,0.004-51.905,0.005-77.858,0c-5.773-0.001-10.019-4.216-10.021-9.99
	c-0.003-17.877,0.011-35.753,0.04-53.63c0.009-5.639,4.264-9.861,9.896-9.874c6.01-0.014,12.021-0.002,18.031-0.002
	C29.564,23.484,29.982,23.484,30.572,23.484z M59.884,23.421c0-3.213,0-6.429,0-9.649c-6.551,0-13.019,0-19.489,0
	c0,3.269,0,6.428,0,9.649C46.902,23.421,53.348,23.421,59.884,23.421z"/>
</svg>
