<?xml version="1.0" encoding="utf-8"?>
<!-- Generator: Adobe Illustrator 16.0.3, SVG Export Plug-In . SVG Version: 6.00 Build 0)  -->
<!DOCTYPE svg PUBLIC "-//W3C//DTD SVG 1.1//EN" "http://www.w3.org/Graphics/SVG/1.1/DTD/svg11.dtd">
<svg version="1.1" id="Capa_1" xmlns="http://www.w3.org/2000/svg" xmlns:xlink="http://www.w3.org/1999/xlink" x="0px" y="0px"
	 width="100px" height="100px" viewBox="0 0 100 100" enable-background="new 0 0 100 100" xml:space="preserve">
<g>
	<path fill-rule="evenodd" clip-rule="evenodd" fill="#2E2A66" d="M1.275,44.386c0.084-0.231,0.178-0.46,0.252-0.696
		c0.797-2.521,2.99-4.215,5.643-4.267c2.304-0.045,4.609-0.023,6.912-0.007c0.486,0.003,0.804-0.067,0.976-0.616
		c0.368-1.171,0.779-2.333,1.248-3.466c0.472-1.133,1.036-2.227,1.596-3.414c-1.597-1.595-3.225-3.219-4.851-4.847
		c-2.959-2.963-2.97-6.458-0.03-9.41c1.693-1.699,3.382-3.403,5.091-5.086c2.657-2.62,6.381-2.609,9.032,0.019
		c1.682,1.664,3.345,3.345,4.963,4.967c2.527-1.049,4.987-2.07,7.576-3.145c0-2.418-0.047-4.971,0.011-7.522
		c0.077-3.295,2.669-5.814,5.961-5.878c0.821-0.016,1.641-0.004,2.463-0.004c1.861,0,3.723-0.009,5.586,0.002
		c3.493,0.021,6.092,2.591,6.136,6.094c0.028,2.24-0.015,4.481,0.03,6.721c0.006,0.31,0.263,0.784,0.522,0.893
		c2.295,0.953,4.614,1.839,7.062,2.797c1.527-1.531,3.196-3.207,4.87-4.875c2.719-2.711,6.434-2.707,9.165,0.01
		c1.745,1.736,3.489,3.475,5.222,5.223c2.639,2.662,2.646,6.28,0.016,8.931c-1.688,1.702-3.395,3.387-4.998,4.986
		c0.966,2.458,1.879,4.828,2.845,7.175c0.089,0.216,0.512,0.413,0.783,0.417c2.177,0.034,4.355,0.011,6.531,0.021
		c3.805,0.018,6.352,2.564,6.358,6.354c0.005,2.525,0.008,5.049-0.001,7.574c-0.011,3.624-2.566,6.207-6.182,6.237
		c-2.209,0.02-4.418-0.016-6.627,0.028c-0.313,0.006-0.794,0.253-0.901,0.512c-0.953,2.294-1.838,4.615-2.8,7.079
		c1.498,1.497,3.152,3.141,4.8,4.79c2.867,2.872,2.88,6.412,0.031,9.272c-1.714,1.723-3.427,3.445-5.156,5.155
		c-2.647,2.62-6.392,2.617-9.029-0.011c-1.677-1.67-3.333-3.357-4.905-4.943c-2.473,0.97-4.842,1.88-7.187,2.852
		c-0.228,0.094-0.416,0.571-0.421,0.873c-0.036,2.146-0.01,4.292-0.022,6.438c-0.018,3.805-2.565,6.355-6.35,6.363
		c-2.525,0.005-5.05,0.008-7.575-0.001c-3.621-0.013-6.21-2.57-6.242-6.181c-0.02-2.209-0.015-4.418,0.002-6.627
		c0.005-0.486-0.078-0.78-0.613-0.979c-2.299-0.856-4.573-1.775-6.993-2.724c-1.48,1.48-3.106,3.106-4.733,4.731
		c-2.897,2.893-6.546,2.897-9.439,0.009c-1.698-1.693-3.398-3.385-5.088-5.087c-2.672-2.694-2.662-6.303,0.026-8.996
		c1.693-1.696,3.402-3.375,4.952-4.914c-0.969-2.471-1.855-4.792-2.809-7.086c-0.109-0.261-0.58-0.517-0.889-0.524
		c-2.114-0.045-4.229-0.019-6.346-0.025c-3.311-0.007-5.381-1.562-6.323-4.734c-0.025-0.085-0.099-0.155-0.149-0.232
		C1.275,51.205,1.275,47.795,1.275,44.386z M43.7,11.587c0,1.388,0.003,2.776,0,4.165c-0.006,1.452-0.477,2.1-1.857,2.445
		c-3.049,0.763-5.912,1.968-8.616,3.565c-1.242,0.734-1.992,0.629-3.032-0.407c-1.968-1.959-3.923-3.932-5.896-5.888
		c-1.141-1.134-2.219-1.126-3.37,0.016c-1.703,1.69-3.395,3.389-5.089,5.088c-1.305,1.311-1.31,2.263-0.017,3.562
		c1.938,1.945,3.887,3.88,5.823,5.827c0.994,1,1.11,1.776,0.408,2.958c-1.622,2.728-2.833,5.621-3.606,8.701
		c-0.334,1.333-0.99,1.816-2.375,1.819c-2.777,0.006-5.555-0.001-8.332,0.003c-1.673,0.003-2.433,0.747-2.439,2.417
		c-0.011,2.43-0.011,4.861,0,7.291c0.01,1.656,0.78,2.408,2.454,2.41c2.777,0.005,5.555-0.002,8.332,0.003
		c1.381,0.002,2.024,0.484,2.361,1.83c0.766,3.049,1.964,5.915,3.562,8.618c0.74,1.255,0.645,2.008-0.378,3.036
		c-1.938,1.947-3.885,3.883-5.821,5.828c-1.262,1.265-1.273,2.246-0.031,3.495c1.691,1.701,3.389,3.396,5.09,5.089
		c1.229,1.224,2.276,1.224,3.508,0c1.923-1.916,3.838-3.84,5.759-5.756c1.125-1.124,1.813-1.216,3.179-0.415
		c2.652,1.558,5.46,2.736,8.443,3.492c1.494,0.377,1.94,0.979,1.941,2.566c0.001,2.714-0.002,5.429,0.001,8.144
		c0.002,1.719,0.746,2.462,2.486,2.468c2.398,0.009,4.798,0.011,7.196,0c1.671-0.008,2.433-0.773,2.437-2.427
		c0.005-2.746,0-5.492,0.002-8.237c0.002-1.527,0.453-2.14,1.896-2.504c3.018-0.761,5.853-1.952,8.53-3.532
		c1.296-0.764,2.026-0.663,3.107,0.415c1.944,1.938,3.88,3.887,5.827,5.823c1.18,1.174,2.249,1.169,3.438-0.012
		c1.7-1.691,3.396-3.388,5.087-5.088c1.255-1.259,1.262-2.254,0.024-3.496c-1.937-1.946-3.886-3.881-5.822-5.827
		c-1.063-1.067-1.151-1.795-0.376-3.112c1.576-2.68,2.764-5.515,3.52-8.533c0.351-1.4,0.979-1.866,2.429-1.868
		c2.777-0.004,5.555,0.003,8.332-0.003c1.613-0.005,2.389-0.761,2.398-2.369c0.016-2.461,0.016-4.923,0-7.385
		c-0.01-1.605-0.787-2.357-2.4-2.361c-2.777-0.004-5.555,0.003-8.332-0.003c-1.44-0.003-2.079-0.483-2.428-1.877
		c-0.753-3.02-1.945-5.854-3.52-8.533c-0.774-1.317-0.686-2.041,0.38-3.111c1.916-1.923,3.839-3.839,5.754-5.761
		c1.329-1.333,1.322-2.279-0.025-3.63c-1.674-1.675-3.346-3.351-5.024-5.02c-1.197-1.188-2.247-1.19-3.438-0.006
		c-1.945,1.937-3.881,3.885-5.826,5.824c-1.081,1.078-1.803,1.175-3.104,0.409c-2.68-1.576-5.513-2.771-8.532-3.527
		c-1.441-0.361-1.893-0.977-1.895-2.504c-0.002-2.777,0.005-5.555-0.004-8.333c-0.004-1.496-0.774-2.308-2.249-2.321
		c-2.525-0.023-5.051-0.021-7.575-0.002c-1.533,0.013-2.285,0.813-2.293,2.376C43.694,8.81,43.7,10.198,43.7,11.587z"/>
	<path fill-rule="evenodd" clip-rule="evenodd" fill="#2E2A66" d="M50.354,69.696c-10.925,0.492-20.287-8.313-20.793-19.554
		c-0.496-10.983,8.333-20.371,19.6-20.843c10.996-0.46,20.321,8.352,20.797,19.649C70.418,59.881,61.623,69.189,50.354,69.696z
		 M65.9,49.485c-0.007-8.928-7.203-16.123-16.131-16.128c-8.93-0.006-16.134,7.175-16.152,16.106
		c-0.02,8.964,7.21,16.195,16.177,16.177C58.719,65.622,65.908,58.411,65.9,49.485z"/>
</g>
</svg>
