<?xml version="1.0" encoding="utf-8"?>
<!-- Generator: Adobe Illustrator 16.0.3, SVG Export Plug-In . SVG Version: 6.00 Build 0)  -->
<!DOCTYPE svg PUBLIC "-//W3C//DTD SVG 1.1//EN" "http://www.w3.org/Graphics/SVG/1.1/DTD/svg11.dtd">
<svg version="1.1" id="Capa_1" xmlns="http://www.w3.org/2000/svg" xmlns:xlink="http://www.w3.org/1999/xlink" x="0px" y="0px"
	 width="122px" height="164px" viewBox="0 0 122 164" enable-background="new 0 0 122 164" xml:space="preserve">
<g>
	<path fill="#55BCB2" d="M61.364,29.83c8.464,0,15.142,6.63,15.629,15.263c6.03,1.591,11.577,4.169,16.416,7.686
		c0.796,0.578,1.56,1.186,2.307,1.807c0.689-2.901,1.063-5.947,1.063-9.091c0-0.835-0.066-1.685-0.117-2.525
		c-0.684-11.157-5.146-20.875-12.526-27.364c-6.885-6.053-15.701-8.907-25.477-8.251c-19.15,1.285-33.597,17.435-33.597,37.565
		c0,0.97,0.031,1.958,0.098,2.935c0.186,2.696,0.645,5.355,1.34,7.926c5.098-4.432,11.308-7.882,18.291-10.036
		C44.987,36.937,52.336,29.83,61.364,29.83z"/>
	<path fill="#2E2A66" d="M110.413,96.305c-4.056,18.438-4.085,18.438-0.029,0c-1.133-7.797-3.838-15.109-7.866-21.404
		c-2.781-4.348-6.186-8.213-10.144-11.412c-2.622-2.118-5.481-3.947-8.559-5.433c-3.026-1.46-6.142-2.602-9.3-3.45
		c-9.132-2.455-18.624-2.398-27.401-0.098c-6.48,1.698-12.565,4.618-17.828,8.656c-1.547,1.187-3.03,2.461-4.423,3.839
		c-0.003,0.004-0.005,0.009-0.009,0.013c-2.108,2.086-4.029,4.386-5.721,6.892c-3.256,4.823-5.668,10.228-7.257,15.9
		c0.019,0.315,0.013,0.634,0.039,0.945c0.558,6.688,0.557,6.688-0.001,0c-0.025-0.312-0.02-0.63-0.039-0.945
		c-5.688,20.303-0.68,44.017,13.792,56.633C30.053,150.263,34,153.18,42,155.079v-27.385v-4.212c0-0.056-0.203-0.111-0.227-0.166
		c-1.229-1.151-2.284-2.388-3.089-3.644c-0.029-0.014-0.064-0.031-0.093-0.046c-2.248-3.523-3.02-7.195-3.257-9.683
		c-0.174-1.816-0.08-3.008-0.08-3.008c-0.059-4.498,0.727-8.066,1.986-10.902c1.284-2.895,3.061-5.018,4.938-6.58
		c2.423-2.015,5.004-3.09,6.912-3.654c0.875-2.167,0.888-2.167,0.012,0C50.817,85.292,52,85.191,52,85.191v0.044
		c0,3.334,0,6.603,0,9.831c0,2.571,0,5.115,0,7.638c0,6.06,0,12.006,0,17.95c0,0.737,0,1.475,0,2.212c0,1.938,0,3.878,0,5.815
		c0,0.2,0,0.4,0,0.6c0,8.64,0,17.289,0,25.999c1,0.632,2.033,0.704,3.472,0.855c28.6,3.105,49.994-13.232,54.721-41.753
		C111.212,108.237,111.261,102.138,110.413,96.305z M71,122.906c0-6.979,0-13.834,0-20.626c0-2.531,0-5.062,0-7.581
		c0-3.088,0-6.171,0-9.256c2,0.181,2.197,0.44,3.108,0.769c0.005,0.017,0.129,0.031,0.133,0.048c2.657,0.954,4.882,2.5,6.567,4.527
		c1.775,2.137,3.046,4.807,3.724,7.932c0.364,1.672,0.584,3.472,0.629,5.382c0.066,2.805-0.1,5.29-0.514,7.503
		c-0.75,4.002-2.332,7.071-4.887,9.345c-0.06,0.021-0.119,0.043-0.179,0.063c-2.129,1.865-4.582,3.201-8.582,4.052
		C71,124.338,71,123.63,71,122.906z"/>
</g>
</svg>
