<?xml version="1.0" encoding="utf-8"?>
<!-- Generator: Adobe Illustrator 16.0.3, SVG Export Plug-In . SVG Version: 6.00 Build 0)  -->
<!DOCTYPE svg PUBLIC "-//W3C//DTD SVG 1.1//EN" "http://www.w3.org/Graphics/SVG/1.1/DTD/svg11.dtd">
<svg version="1.1" xmlns="http://www.w3.org/2000/svg" xmlns:xlink="http://www.w3.org/1999/xlink" x="0px" y="0px" width="960px"
	 height="554px" viewBox="0 0 960 554" enable-background="new 0 0 960 554" xml:space="preserve">
<g id="Capa_1">
</g>
<g id="Capa_2">
	<rect y="-3" display="none" fill="#2E2A66" width="960" height="554"/>
	<g>
		<path fill-rule="evenodd" clip-rule="evenodd" fill="#55BCB2" d="M463.784,238.51c5.202-0.081,9.568,4.107,9.571,9.181
			c0.003,4.947-4.174,9.003-9.336,9.067c-5.176,0.064-9.412-3.847-9.568-8.836C454.291,242.846,458.51,238.592,463.784,238.51z"/>
		<path fill="#FFFFFF" d="M562.273,263.689C562.273,263.689,562.279,263.689,562.273,263.689v49.116c0.006,0,0,0,0,0
			C562.273,296.434,562.273,280.063,562.273,263.689z"/>
		<path fill="#FFFFFF" d="M572.273,312.806v-0.012c-1.301,0-2.594,0.006-3.883,0.012H572.273z"/>
		<path fill="#FFFFFF" d="M545.901,263.689v2.915c-0.1,0.018-0.163,0.044-0.164,0.087c-14.557-6.68-25.964-1.08-31.617,6.15
			c-6.944,8.881-7.189,21.46-0.634,30.526c7.167,9.911,18.117,12.303,32.225,7.163c0.064,0.069,0.127,0.147,0.19,0.225v2.05h7.727
			h4.763c1.289-0.006,2.582-0.012,3.883-0.012V263.69v-0.001H545.901z M535.879,301.262c-7.012,0-12.696-5.686-12.696-12.697
			c0-7.014,5.685-12.698,12.696-12.698c4.08,0,7.699,1.932,10.022,4.92c1.671,2.149,2.676,4.844,2.676,7.778
			c0,2.933-1.005,5.627-2.676,7.776C543.578,299.33,539.959,301.262,535.879,301.262z"/>
		<path fill-rule="evenodd" clip-rule="evenodd" fill="#FFFFFF" d="M624.105,283.189c-0.744-13.396-11.475-21.472-24.618-18.902
			c-3.191,0.624-6.233,1.977-9.438,3.042c-0.023-0.176-0.046-0.376-0.068-0.548v-3.092h-16.372v49.116h16.372v-28.332
			c0.077-0.663,0.232-1.304,0.555-1.801c2.321-3.579,7.75-5.384,11.703-4.104c3.866,1.251,5.869,4.266,5.9,9.4
			c0.045,7.132,0.103,14.265,0.103,21.396c0,1.098,0,2.182,0,3.44c5.667,0,10.732,0,15.97,0
			C624.211,302.73,624.645,292.904,624.105,283.189z"/>
		<rect x="483.563" y="241.65" fill-rule="evenodd" clip-rule="evenodd" fill="#FFFFFF" width="16.372" height="71.155"/>
		<rect x="428.15" y="241.65" fill-rule="evenodd" clip-rule="evenodd" fill="#55BCB2" width="16.371" height="71.155"/>
		<rect x="455.855" y="263.689" fill-rule="evenodd" clip-rule="evenodd" fill="#55BCB2" width="16.373" height="49.116"/>
		<path fill="#FFFFFF" d="M684.037,292.656h-13.374l-0.234,0.604c-1.714,4.434-6.29,7.529-11.13,7.529
			c-6.48,0-11.753-5.379-11.753-11.989c0-6.351,5.163-11.326,11.753-11.326c4.907,0,9.354,3.315,11.065,8.251l0.22,0.635h13.834
			l-0.047-0.99c-0.589-12.393-11.793-22.1-25.509-22.1c-0.604,0-1.218,0.02-1.824,0.057c-8.06,0.494-15.08,3.703-19.768,9.035
			c-4.373,4.973-6.435,11.334-5.961,18.396c0.929,13.834,12.595,24.267,27.137,24.267c0.701,0,1.415-0.024,2.12-0.073
			c7.532-0.52,14.695-3.936,19.163-9.141c3.178-3.703,4.733-8.068,4.379-12.289L684.037,292.656z"/>
		<path fill-rule="evenodd" clip-rule="evenodd" fill="#FFFFFF" d="M720.79,264.104c-11.67-1.934-23.014,3.378-27.626,12.936
			c-5.448,11.288-2.068,25.08,7.774,31.726c10.832,7.313,27.658,5.948,35.575-3.134c1.875-2.15,3.305-4.426,4.236-7.938h-15.497
			c-0.027,0.012-0.055,0.027-0.081,0.039c-3.313,3.539-8.034,3.125-8.034,3.125c-9.977,0.13-10.665-8.201-10.665-8.201h0.021
			c6.065,0,11.719,0,17.372,0c1.312,0,2.625,0,3.938,0c4.335,0,8.675,0,13.046,0c0.31-0.785,0.345-1.004,0.419-1.709
			C742.792,276.92,734.778,266.424,720.79,264.104z M706.597,283.211c0.755-4.408,4.188-6.723,9.15-6.84
			c5.944-0.139,9.075,1.802,10.281,6.84C719.385,283.211,712.998,283.211,706.597,283.211z"/>
		<path fill-rule="evenodd" clip-rule="evenodd" fill="#55BCB2" d="M414.211,283.211c-5.541,0-11.082,0-16.512,0
			c-2.373,6.08-8.282,10.389-15.202,10.389c-9.011,0-16.317-7.305-16.317-16.316s7.307-16.316,16.317-16.316
			c6.878,0,12.759,4.258,15.159,10.279c6.771,0,13.563,0,20.36,0c-0.833-17.002-17.206-29.867-36.694-28.672
			c-21.46,1.317-35.979,16.939-34.619,37.223c1.309,19.507,18.463,33.611,39.366,32.172c18.015-1.242,32.762-14.905,31.586-28.758
			C416.528,283.211,415.369,283.211,414.211,283.211z"/>
	</g>
	<g>
		<path fill="#55BCB2" d="M269.364,222.83c8.464,0,15.142,6.629,15.63,15.263c6.029,1.591,11.576,4.169,16.416,7.686
			c0.796,0.578,1.559,1.187,2.307,1.807c0.689-2.901,1.063-5.946,1.063-9.091c0-0.835-0.066-1.686-0.117-2.525
			c-0.684-11.157-5.146-20.875-12.525-27.364c-6.885-6.054-15.701-8.907-25.478-8.251c-19.15,1.285-33.597,17.435-33.597,37.564
			c0,0.971,0.031,1.959,0.098,2.936c0.186,2.695,0.645,5.355,1.34,7.926c5.098-4.432,11.309-7.882,18.291-10.035
			C252.987,229.938,260.336,222.83,269.364,222.83z"/>
		<path fill="#FFFFFF" d="M318.413,289.305c-4.056,18.438-4.085,18.438-0.029,0c-1.133-7.797-3.839-15.109-7.866-21.404
			c-2.78-4.348-6.186-8.213-10.144-11.411c-2.622-2.118-5.481-3.946-8.559-5.433c-3.026-1.461-6.142-2.602-9.3-3.45
			c-9.132-2.455-18.623-2.398-27.401-0.099c-6.48,1.698-12.565,4.618-17.828,8.656c-1.547,1.188-3.03,2.461-4.423,3.84
			c-0.004,0.004-0.006,0.008-0.01,0.012c-2.107,2.086-4.028,4.387-5.721,6.893c-3.256,4.822-5.668,10.228-7.257,15.899
			c0.019,0.315,0.013,0.634,0.039,0.945c0.558,6.688,0.558,6.688-0.001,0c-0.025-0.312-0.02-0.63-0.039-0.945
			c-5.688,20.303-0.68,44.017,13.792,56.633c4.386,3.822,8.333,6.739,16.333,8.639v-27.385v-4.212c0-0.056-0.203-0.111-0.227-0.166
			c-1.229-1.151-2.284-2.388-3.09-3.644c-0.029-0.014-0.064-0.031-0.093-0.046c-2.248-3.523-3.02-7.195-3.257-9.683
			c-0.174-1.816-0.08-3.008-0.08-3.008c-0.059-4.498,0.728-8.066,1.986-10.902c1.284-2.895,3.061-5.018,4.938-6.58
			c2.423-2.015,5.004-3.09,6.912-3.654c0.875-2.167,0.888-2.167,0.012,0c1.716-0.508,2.898-0.608,2.898-0.608v0.044
			c0,3.334,0,6.603,0,9.831c0,2.571,0,5.115,0,7.638c0,6.06,0,12.006,0,17.95c0,0.737,0,1.475,0,2.212c0,1.938,0,3.878,0,5.815
			c0,0.2,0,0.4,0,0.6c0,8.64,0,17.289,0,25.999c1,0.632,2.033,0.704,3.472,0.855c28.6,3.105,49.993-13.232,54.722-41.753
			C319.212,301.237,319.261,295.138,318.413,289.305z M279,315.906c0-6.979,0-13.834,0-20.626c0-2.531,0-5.062,0-7.581
			c0-3.088,0-6.171,0-9.256c2,0.181,2.197,0.44,3.108,0.769c0.005,0.017,0.129,0.031,0.134,0.048c2.656,0.954,4.881,2.5,6.566,4.527
			c1.775,2.137,3.047,4.807,3.725,7.932c0.363,1.672,0.584,3.472,0.629,5.382c0.066,2.805-0.1,5.29-0.514,7.503
			c-0.75,4.002-2.332,7.071-4.888,9.345c-0.06,0.021-0.118,0.043-0.179,0.063c-2.129,1.865-4.582,3.201-8.582,4.052
			C279,317.338,279,316.63,279,315.906z"/>
	</g>
</g>
<g id="Capa_3">
</g>
</svg>
