<?xml version="1.0" encoding="UTF-8" standalone="no"?>
<!-- Generator: Adobe Illustrator 16.0.3, SVG Export Plug-In . SVG Version: 6.00 Build 0)  -->

<svg
   xmlns:dc="http://purl.org/dc/elements/1.1/"
   xmlns:cc="http://creativecommons.org/ns#"
   xmlns:rdf="http://www.w3.org/1999/02/22-rdf-syntax-ns#"
   xmlns:svg="http://www.w3.org/2000/svg"
   xmlns="http://www.w3.org/2000/svg"
   xmlns:sodipodi="http://sodipodi.sourceforge.net/DTD/sodipodi-0.dtd"
   xmlns:inkscape="http://www.inkscape.org/namespaces/inkscape"
   version="1.1"
   x="0px"
   y="0px"
   width="960px"
   height="554px"
   viewBox="0 0 960 554"
   enable-background="new 0 0 960 554"
   xml:space="preserve"
   id="svg4613"
   sodipodi:docname="Logo-04.svg"
   inkscape:version="0.92.4 (f8dce91, 2019-08-02)"><metadata
   id="metadata4619"><rdf:RDF><cc:Work
       rdf:about=""><dc:format>image/svg+xml</dc:format><dc:type
         rdf:resource="http://purl.org/dc/dcmitype/StillImage" /><dc:title></dc:title></cc:Work></rdf:RDF></metadata><defs
   id="defs4617" /><sodipodi:namedview
   pagecolor="#ffffff"
   bordercolor="#666666"
   borderopacity="1"
   objecttolerance="10"
   gridtolerance="10"
   guidetolerance="10"
   inkscape:pageopacity="0"
   inkscape:pageshadow="2"
   inkscape:window-width="1241"
   inkscape:window-height="665"
   id="namedview4615"
   showgrid="false"
   inkscape:zoom="0.87364621"
   inkscape:cx="480"
   inkscape:cy="275.09347"
   inkscape:window-x="39"
   inkscape:window-y="27"
   inkscape:window-maximized="1"
   inkscape:current-layer="svg4613"
   inkscape:lockguides="false"
   inkscape:snap-object-midpoints="false" />
<g
   id="Capa_1"
   transform="matrix(1.8215387,0,0,1.8215387,-393.0865,-226.15661)">
</g>
<g
   id="Capa_2"
   transform="matrix(1.8215387,0,0,1.8215387,-393.0865,-226.15661)">
	<rect
   y="-3"
   display="none"
   width="960"
   height="554"
   id="rect4579"
   x="0"
   style="display:none;fill:#2e2a66" />
	<g
   id="g4603">
		<path
   d="m 463.784,238.51 c 5.202,-0.081 9.568,4.107 9.571,9.181 0.003,4.947 -4.174,9.003 -9.336,9.067 -5.176,0.064 -9.412,-3.847 -9.568,-8.836 -0.16,-5.076 4.059,-9.33 9.333,-9.412 z"
   id="path4581"
   inkscape:connector-curvature="0"
   style="clip-rule:evenodd;fill:#55bcb2;fill-rule:evenodd" />
		<path
   d="m 562.273,263.689 c 0,0 0.006,0 0,0 v 49.116 c 0.006,0 0,0 0,0 0,-16.371 0,-32.742 0,-49.116 z"
   id="path4583"
   inkscape:connector-curvature="0"
   style="fill:#ffffff" />
		<path
   d="m 572.273,312.806 v -0.012 c -1.301,0 -2.594,0.006 -3.883,0.012 z"
   id="path4585"
   inkscape:connector-curvature="0"
   style="fill:#ffffff" />
		<path
   d="m 545.901,263.689 v 2.915 c -0.1,0.018 -0.163,0.044 -0.164,0.087 -14.557,-6.68 -25.964,-1.08 -31.617,6.15 -6.944,8.881 -7.189,21.46 -0.634,30.526 7.167,9.911 18.117,12.303 32.225,7.163 0.064,0.069 0.127,0.147 0.19,0.225 v 2.05 h 7.727 4.763 c 1.289,-0.006 2.582,-0.012 3.883,-0.012 v -49.103 -10e-4 z m -10.022,37.573 c -7.012,0 -12.696,-5.686 -12.696,-12.697 0,-7.014 5.685,-12.698 12.696,-12.698 4.08,0 7.699,1.932 10.022,4.92 1.671,2.149 2.676,4.844 2.676,7.778 0,2.933 -1.005,5.627 -2.676,7.776 -2.323,2.989 -5.942,4.921 -10.022,4.921 z"
   id="path4587"
   inkscape:connector-curvature="0"
   style="fill:#ffffff" />
		<path
   d="m 624.105,283.189 c -0.744,-13.396 -11.475,-21.472 -24.618,-18.902 -3.191,0.624 -6.233,1.977 -9.438,3.042 -0.023,-0.176 -0.046,-0.376 -0.068,-0.548 v -3.092 h -16.372 v 49.116 h 16.372 v -28.332 c 0.077,-0.663 0.232,-1.304 0.555,-1.801 2.321,-3.579 7.75,-5.384 11.703,-4.104 3.866,1.251 5.869,4.266 5.9,9.4 0.045,7.132 0.103,14.265 0.103,21.396 0,1.098 0,2.182 0,3.44 5.667,0 10.732,0 15.97,0 -10e-4,-10.074 0.433,-19.9 -0.107,-29.615 z"
   id="path4589"
   inkscape:connector-curvature="0"
   style="clip-rule:evenodd;fill:#ffffff;fill-rule:evenodd" />
		<rect
   x="483.56299"
   y="241.64999"
   width="16.372"
   height="71.154999"
   id="rect4591"
   style="clip-rule:evenodd;fill:#ffffff;fill-rule:evenodd" />
		<rect
   x="428.14999"
   y="241.64999"
   width="16.371"
   height="71.154999"
   id="rect4593"
   style="clip-rule:evenodd;fill:#55bcb2;fill-rule:evenodd" />
		<rect
   x="455.85501"
   y="263.689"
   width="16.372999"
   height="49.116001"
   id="rect4595"
   style="clip-rule:evenodd;fill:#55bcb2;fill-rule:evenodd" />
		<path
   d="m 684.037,292.656 h -13.374 l -0.234,0.604 c -1.714,4.434 -6.29,7.529 -11.13,7.529 -6.48,0 -11.753,-5.379 -11.753,-11.989 0,-6.351 5.163,-11.326 11.753,-11.326 4.907,0 9.354,3.315 11.065,8.251 l 0.22,0.635 h 13.834 l -0.047,-0.99 c -0.589,-12.393 -11.793,-22.1 -25.509,-22.1 -0.604,0 -1.218,0.02 -1.824,0.057 -8.06,0.494 -15.08,3.703 -19.768,9.035 -4.373,4.973 -6.435,11.334 -5.961,18.396 0.929,13.834 12.595,24.267 27.137,24.267 0.701,0 1.415,-0.024 2.12,-0.073 7.532,-0.52 14.695,-3.936 19.163,-9.141 3.178,-3.703 4.733,-8.068 4.379,-12.289 z"
   id="path4597"
   inkscape:connector-curvature="0"
   style="fill:#ffffff" />
		<path
   d="m 720.79,264.104 c -11.67,-1.934 -23.014,3.378 -27.626,12.936 -5.448,11.288 -2.068,25.08 7.774,31.726 10.832,7.313 27.658,5.948 35.575,-3.134 1.875,-2.15 3.305,-4.426 4.236,-7.938 h -15.497 c -0.027,0.012 -0.055,0.027 -0.081,0.039 -3.313,3.539 -8.034,3.125 -8.034,3.125 -9.977,0.13 -10.665,-8.201 -10.665,-8.201 h 0.021 c 6.065,0 11.719,0 17.372,0 1.312,0 2.625,0 3.938,0 4.335,0 8.675,0 13.046,0 0.31,-0.785 0.345,-1.004 0.419,-1.709 1.524,-14.028 -6.49,-24.524 -20.478,-26.844 z m -14.193,19.107 c 0.755,-4.408 4.188,-6.723 9.15,-6.84 5.944,-0.139 9.075,1.802 10.281,6.84 -6.643,0 -13.03,0 -19.431,0 z"
   id="path4599"
   inkscape:connector-curvature="0"
   style="clip-rule:evenodd;fill:#ffffff;fill-rule:evenodd" />
		<path
   d="m 414.211,283.211 c -5.541,0 -11.082,0 -16.512,0 -2.373,6.08 -8.282,10.389 -15.202,10.389 -9.011,0 -16.317,-7.305 -16.317,-16.316 0,-9.011 7.307,-16.316 16.317,-16.316 6.878,0 12.759,4.258 15.159,10.279 6.771,0 13.563,0 20.36,0 -0.833,-17.002 -17.206,-29.867 -36.694,-28.672 -21.46,1.317 -35.979,16.939 -34.619,37.223 1.309,19.507 18.463,33.611 39.366,32.172 18.015,-1.242 32.762,-14.905 31.586,-28.758 -1.127,-10e-4 -2.286,-10e-4 -3.444,-10e-4 z"
   id="path4601"
   inkscape:connector-curvature="0"
   style="clip-rule:evenodd;fill:#55bcb2;fill-rule:evenodd" />
	</g>
	<g
   id="g4609">
		<path
   d="m 269.364,222.83 c 8.464,0 15.142,6.629 15.63,15.263 6.029,1.591 11.576,4.169 16.416,7.686 0.796,0.578 1.559,1.187 2.307,1.807 0.689,-2.901 1.063,-5.946 1.063,-9.091 0,-0.835 -0.066,-1.686 -0.117,-2.525 -0.684,-11.157 -5.146,-20.875 -12.525,-27.364 -6.885,-6.054 -15.701,-8.907 -25.478,-8.251 -19.15,1.285 -33.597,17.435 -33.597,37.564 0,0.971 0.031,1.959 0.098,2.936 0.186,2.695 0.645,5.355 1.34,7.926 5.098,-4.432 11.309,-7.882 18.291,-10.035 0.195,-8.808 7.544,-15.916 16.572,-15.916 z"
   id="path4605"
   inkscape:connector-curvature="0"
   style="fill:#55bcb2" />
		<path
   d="m 318.413,289.305 c -4.056,18.438 -4.085,18.438 -0.029,0 -1.133,-7.797 -3.839,-15.109 -7.866,-21.404 -2.78,-4.348 -6.186,-8.213 -10.144,-11.411 -2.622,-2.118 -5.481,-3.946 -8.559,-5.433 -3.026,-1.461 -6.142,-2.602 -9.3,-3.45 -9.132,-2.455 -18.623,-2.398 -27.401,-0.099 -6.48,1.698 -12.565,4.618 -17.828,8.656 -1.547,1.188 -3.03,2.461 -4.423,3.84 -0.004,0.004 -0.006,0.008 -0.01,0.012 -2.107,2.086 -4.028,4.387 -5.721,6.893 -3.256,4.822 -5.668,10.228 -7.257,15.899 0.019,0.315 0.013,0.634 0.039,0.945 0.558,6.688 0.558,6.688 -10e-4,0 -0.025,-0.312 -0.02,-0.63 -0.039,-0.945 -5.688,20.303 -0.68,44.017 13.792,56.633 4.386,3.822 8.333,6.739 16.333,8.639 v -27.385 -4.212 c 0,-0.056 -0.203,-0.111 -0.227,-0.166 -1.229,-1.151 -2.284,-2.388 -3.09,-3.644 -0.029,-0.014 -0.064,-0.031 -0.093,-0.046 -2.248,-3.523 -3.02,-7.195 -3.257,-9.683 -0.174,-1.816 -0.08,-3.008 -0.08,-3.008 -0.059,-4.498 0.728,-8.066 1.986,-10.902 1.284,-2.895 3.061,-5.018 4.938,-6.58 2.423,-2.015 5.004,-3.09 6.912,-3.654 0.875,-2.167 0.888,-2.167 0.012,0 1.716,-0.508 2.898,-0.608 2.898,-0.608 v 0.044 c 0,3.334 0,6.603 0,9.831 0,2.571 0,5.115 0,7.638 0,6.06 0,12.006 0,17.95 0,0.737 0,1.475 0,2.212 0,1.938 0,3.878 0,5.815 0,0.2 0,0.4 0,0.6 0,8.64 0,17.289 0,25.999 1,0.632 2.033,0.704 3.472,0.855 28.6,3.105 49.993,-13.232 54.722,-41.753 1.02,-6.146 1.069,-12.245 0.221,-18.078 z M 279,315.906 c 0,-6.979 0,-13.834 0,-20.626 0,-2.531 0,-5.062 0,-7.581 0,-3.088 0,-6.171 0,-9.256 2,0.181 2.197,0.44 3.108,0.769 0.005,0.017 0.129,0.031 0.134,0.048 2.656,0.954 4.881,2.5 6.566,4.527 1.775,2.137 3.047,4.807 3.725,7.932 0.363,1.672 0.584,3.472 0.629,5.382 0.066,2.805 -0.1,5.29 -0.514,7.503 -0.75,4.002 -2.332,7.071 -4.888,9.345 -0.06,0.021 -0.118,0.043 -0.179,0.063 -2.129,1.865 -4.582,3.201 -8.582,4.052 C 279,317.338 279,316.63 279,315.906 Z"
   id="path4607"
   inkscape:connector-curvature="0"
   style="fill:#ffffff" />
	</g>
</g>
<g
   id="Capa_3"
   transform="matrix(1.8215387,0,0,1.8215387,-393.0865,-226.15661)">
</g>
</svg>